<svg xmlns="http://www.w3.org/2000/svg" viewBox="0 0 200 60" fill="none">
  <!-- Background Circle for Icon -->
  <circle cx="30" cy="30" r="28" fill="#25D366" opacity="0.1"/>
  
  <!-- WhatsApp-style Message Bubble -->
  <g transform="translate(10, 10)">
    <!-- Message Bubble Shape -->
    <path d="M30 5C18.95 5 10 13.95 10 25C10 29.85 11.55 34.35 14.15 38L12 48L22.35 45.85C25.85 48.25 29.85 49.5 34 49.5C45.05 49.5 54 40.55 54 29.5C54 18.45 45.05 9.5 34 9.5C32.35 9.5 30.75 9.75 29.25 10.15C28.25 7.35 26.35 5 24 5H30Z" 
          fill="#25D366"/>
    
    <!-- Inner Chat Lines -->
    <rect x="18" y="18" width="20" height="2" rx="1" fill="white"/>
    <rect x="18" y="23" width="15" height="2" rx="1" fill="white"/>
    <rect x="18" y="28" width="18" height="2" rx="1" fill="white"/>
  </g>
  
  <!-- PyTake Text -->
  <g transform="translate(70, 20)">
    <!-- Py -->
    <text x="0" y="20" font-family="Inter, system-ui, sans-serif" font-size="24" font-weight="700" fill="#25D366">
      Py
    </text>
    <!-- Take -->
    <text x="28" y="20" font-family="Inter, system-ui, sans-serif" font-size="24" font-weight="700" fill="#128C7E">
      Take
    </text>
  </g>
  
  <!-- Tagline (optional) -->
  <text x="70" y="45" font-family="Inter, system-ui, sans-serif" font-size="9" font-weight="400" fill="#667781" opacity="0.8">
    WhatsApp Business Automation
  </text>
</svg>