<svg width="60" height="60" viewBox="0 0 60 60" fill="none" xmlns="http://www.w3.org/2000/svg">
  <defs>
    <!-- Gradient Definition -->
    <linearGradient id="iconGradient" x1="0%" y1="0%" x2="100%" y2="100%">
      <stop offset="0%" style="stop-color:#25D366;stop-opacity:1" />
      <stop offset="50%" style="stop-color:#20BD5C;stop-opacity:1" />
      <stop offset="100%" style="stop-color:#128C7E;stop-opacity:1" />
    </linearGradient>
    
    <!-- Inner Shadow for depth -->
    <filter id="innerShadow">
      <feGaussianBlur in="SourceAlpha" stdDeviation="3"/>
      <feOffset dx="0" dy="2"/>
      <feComposite in2="SourceAlpha" operator="arithmetic" k2="-1" k3="1"/>
      <feColorMatrix type="matrix" values="0 0 0 0 0   0 0 0 0 0   0 0 0 0 0   0 0 0 0.2 0"/>
    </filter>
  </defs>
  
  <!-- Background Circle -->
  <circle cx="30" cy="30" r="28" fill="url(#iconGradient)" opacity="0.15"/>
  
  <!-- Main Message Bubble Shape -->
  <g transform="translate(30, 30)">
    <path d="M0 -18C-9.94 -18 -18 -9.94 -18 0C-18 4.5 -16.5 8.5 -14 11.5L-16 19L-8 17C-5 18.5 -2.5 19 0 19C9.94 19 18 10.94 18 1C18 -8.94 9.94 -17 0 -17Z" 
          fill="url(#iconGradient)"/>
    
    <!-- Python-inspired Symbol (P shape) -->
    <path d="M-4 -8C-4 -10 -3 -11 -1 -11C1 -11 2 -10 2 -8V-3C2 -1 1 0 -1 0H-3" 
          stroke="white" 
          stroke-width="2.5" 
          stroke-linecap="round" 
          fill="none"/>
    
    <!-- Continuation of P to suggest Python -->
    <circle cx="-1" cy="-8" r="1.5" fill="white"/>
    
    <!-- Chat Elements -->
    <rect x="4" y="-2" width="8" height="2" rx="1" fill="white" opacity="0.9"/>
    <rect x="4" y="2" width="6" height="2" rx="1" fill="white" opacity="0.7"/>
  </g>
</svg>