<svg xmlns="http://www.w3.org/2000/svg" viewBox="0 0 400 300" fill="none">
  <rect width="400" height="300" fill="#F3F4F6"/>
  <circle cx="200" cy="150" r="80" fill="#25D366" opacity="0.1"/>
  <path d="M200 110C177.91 110 160 127.91 160 150C160 172.09 177.91 190 200 190C211.04 190 221.08 185.84 228.55 179.05L240 190L236.18 175.76C238.65 170.67 240 164.99 240 159C240 136.91 222.09 119 200 119V110Z" fill="#25D366"/>
  <path d="M185 140C185 138.343 186.343 137 188 137H212C213.657 137 215 138.343 215 140C215 141.657 213.657 143 212 143H188C186.343 143 185 141.657 185 140Z" fill="white"/>
  <path d="M185 150C185 148.343 186.343 147 188 147H205C206.657 147 208 148.343 208 150C208 151.657 206.657 153 205 153H188C186.343 153 185 151.657 185 150Z" fill="white"/>
  <path d="M185 160C185 158.343 186.343 157 188 157H212C213.657 157 215 158.343 215 160C215 161.657 213.657 163 212 163H188C186.343 163 185 161.657 185 160Z" fill="white"/>
</svg>